<svg  viewBox="0 0 24 24"   xmlns="http://www.w3.org/2000/svg"><path d="m231.99951 183.99451v-127.99439a16.01833 16.01833 0 0 0 -16-16h-176a16.01834 16.01834 0 0 0 -16 16v143.99951a16.01833 16.01833 0 0 0 16 16h176a16.01833 16.01833 0 0 0 16-16zm-16-127.99439.0083 108.6933-28.69381-28.6933a16.019 16.019 0 0 0 -22.62792 0l-20.68555 20.68652-44.68653-44.68652a16.019 16.019 0 0 0 -22.62792 0l-36.68657 36.68549v-92.68549zm0 143.99951h-176v-28.68554l48-48.00049 44.68653 44.687a16.0024 16.0024 0 0 0 22.62792 0l20.68555-20.687 40.00977 40.01025.001 12.67578zm-68.48535-91.51463a12.00018 12.00018 0 1 1 20.48633-8.48486v.00342a12.00044 12.00044 0 0 1 -20.48633 8.48144z"/></svg>